<svg width="127" height="50" viewBox="0 0 127 50" fill="none" xmlns="http://www.w3.org/2000/svg">
<path d="M46.0799 40.0164C46.6311 40.0164 47.2353 40.2814 47.8184 40.7902L47.935 40.8856L48.9738 39.6136L48.8784 39.5182C48.1682 38.808 47.1399 38.4052 46.0587 38.4052C44.6594 38.4052 43.1648 39.2002 43.1648 40.9386C43.1648 42.6771 44.511 43.0057 45.6029 43.3237C46.3131 43.5357 46.7689 43.7159 46.7689 44.2778C46.7689 44.988 46.1435 45.094 45.7831 45.094C45.0623 45.094 44.2248 44.723 43.716 44.3944L43.5676 44.299L42.9316 45.8466L43.027 45.9208C43.4404 46.2388 44.5428 46.7159 45.8679 46.7159C47.7124 46.7159 48.8572 45.7406 48.8572 44.1612C48.8572 42.4545 47.4579 42.0093 46.4403 41.6913C45.6771 41.4581 45.2107 41.2885 45.2107 40.7372C45.2107 40.186 45.6771 40.0164 46.1117 40.0164H46.0799Z" fill="#121212"/>
<path d="M53.903 38.4052C51.5073 38.4052 50.0126 40.0694 50.0126 42.7619C50.0126 46.0162 51.6769 46.6947 53.0761 46.6947C53.6804 46.6947 54.2422 46.525 54.7404 46.1858V49.631H56.8287V39.0094L56.7333 38.967C55.8216 38.6066 54.7828 38.4052 53.903 38.4052ZM54.7404 44.0128C54.7404 44.458 54.274 45.1152 53.4366 45.1152C52.1963 45.1152 52.1009 43.9704 52.1009 42.5923C52.1009 41.3415 52.6945 40.08 54.009 40.08C54.2846 40.08 54.5072 40.1012 54.751 40.1648V44.0128H54.7404Z" fill="#121212"/>
<path d="M65.4468 38.6383H63.3585V43.7265C63.3585 44.3307 62.7861 45.0197 62.0228 45.0197C61.1642 45.0197 61.0052 44.4897 61.0052 43.5781V38.6383H58.9169V43.9067C58.9169 45.7617 59.7968 46.6946 61.5458 46.6946C62.4151 46.6946 63.1571 46.366 63.6659 45.7617L63.7507 46.4826H65.574L65.4362 45.0727V38.6277L65.4468 38.6383Z" fill="#121212"/>
<path d="M72.3582 46.4827H74.2027L74.0543 44.882V38.9776L73.9589 38.9458C72.8352 38.5218 71.7222 38.4158 71.2346 38.4158C68.6587 38.4158 67.1852 40.0482 67.1852 42.8891C67.1852 45.3696 68.2559 46.6841 70.2806 46.6841C71.0862 46.6841 71.807 46.3767 72.284 45.836L72.3688 46.4827H72.3582ZM71.9766 43.9492C71.9766 44.511 71.5102 45.1046 70.6516 45.1046C69.6975 45.1046 69.2417 44.3626 69.2417 42.8255C69.2417 41.5429 69.5491 40.0164 71.0014 40.0164C71.4042 40.0164 71.7646 40.08 71.9766 40.1648V43.9492Z" fill="#121212"/>
<path d="M82.63 44.8608V35.7444H80.563V38.5323C80.2873 38.4581 79.9693 38.4051 79.5453 38.4051C77.2132 38.4051 75.761 40.1118 75.761 42.8467C75.761 45.3696 76.8316 46.7052 78.8669 46.7052C79.6619 46.7052 80.3722 46.3872 80.8598 45.8148L80.9552 46.4826H82.7784L82.63 44.8608ZM80.563 43.9915C80.563 44.5216 80.0223 45.094 79.2273 45.094C78.2839 45.094 77.8281 44.3096 77.8281 42.6877C77.8281 41.6913 78.0613 40.0164 79.5877 40.0164C79.9905 40.0164 80.3298 40.1118 80.563 40.2072V43.9915Z" fill="#121212"/>
<path d="M126.728 44.4368L88.789 43.5145C88.789 43.5145 88.7572 43.5145 88.7466 43.5145C88.2378 43.5251 87.8349 43.9491 87.8455 44.458C87.8561 44.9668 88.2802 45.3696 88.789 45.359L126.728 44.4368Z" fill="#121212"/>
<path d="M36.1791 43.5146L0 44.4368L36.1791 45.3591C36.1791 45.3591 36.2109 45.3591 36.2215 45.3591C36.7303 45.3485 37.1331 44.9244 37.1225 44.405C37.1119 43.8962 36.6879 43.4934 36.1685 43.504L36.1791 43.5146Z" fill="#121212"/>
<path d="M11.2152 38.2992C11.2152 38.2992 11.2576 38.2992 11.2788 38.2886C15.1267 36.847 16.9712 36.264 20.5647 35.2145C26.4585 33.4972 29.681 29.9143 29.8824 24.8579L29.9778 22.4304V22.282C30.1262 18.8581 28.9708 16.8228 26.4585 16.0808C28.7482 14.6922 29.8506 12.6251 29.999 9.42378L30.052 8.27893C30.1792 5.61824 29.628 3.68897 28.3772 2.37452C27.1581 1.09187 25.2289 0.445251 22.6636 0.445251H22.5788C19.4517 0.466452 17.8828 0.477053 14.7557 0.498253C14.6603 0.498253 14.5861 0.572456 14.5755 0.657259C13.155 14.9148 12.0314 26.819 11.0244 38.1084C11.0244 38.172 11.0456 38.225 11.0986 38.2674C11.1304 38.2886 11.1728 38.2992 11.2046 38.2992H11.2152ZM19.6531 6.24366C20.5753 6.18006 21.0841 6.14826 22.0488 6.08466C22.1442 6.08466 22.229 6.08466 22.3138 6.08466C22.9604 6.08466 23.4374 6.25426 23.766 6.60407C24.2218 7.09169 24.402 7.95032 24.3172 9.22237L24.2006 11.0562C24.0522 13.3353 23.0452 14.4484 20.8509 14.7558C20.0665 14.8618 19.6425 14.9254 18.9216 15.0314C19.1972 11.6923 19.3351 9.92199 19.6531 6.25426V6.24366ZM18.5188 20.1302C19.4305 19.9606 19.9181 19.8758 20.8721 19.7167C21.3173 19.6425 21.6883 19.6001 22.017 19.6001C22.706 19.6001 23.1724 19.7591 23.4904 20.0984C23.9462 20.5754 24.1158 21.4552 24.031 22.8439L23.8614 25.706C23.7342 27.932 22.8226 29.0875 20.8085 29.5751C19.5365 29.8825 18.8898 30.0521 17.7238 30.3595C18.0312 26.1512 18.1902 24.1583 18.5082 20.1302H18.5188Z" fill="#121212"/>
<path d="M43.1224 19.0913C43.6207 19.6001 43.8645 20.4693 43.8433 21.7626L43.8009 26.4161C43.7797 28.8436 43.9705 29.3312 44.2567 30.0733V30.1051C44.2991 30.1793 44.3627 30.2217 44.4369 30.2217H44.4581C46.6736 29.9143 47.6912 29.7871 49.8113 29.5539C49.8749 29.5539 49.9173 29.5115 49.9491 29.4584C49.9809 29.4054 49.9809 29.3418 49.9491 29.2888C49.4403 28.2924 49.4085 27.2642 49.4191 25.9179V23.6918L49.4509 21.4552C49.4721 18.2114 48.4756 16.3034 46.3132 15.4871C48.4332 14.3211 49.4721 12.3388 49.4827 9.43432V8.30008L49.4933 7.16584C49.5039 4.97156 48.9739 3.3603 47.8608 2.23666C46.5994 0.964615 44.6065 0.349792 41.755 0.349792H41.6808C38.5537 0.360393 36.9954 0.370993 33.8683 0.381594C33.7729 0.381594 33.6987 0.455796 33.6881 0.5512C33.3171 9.90074 33.0203 19.4199 32.7447 28.6104L32.6387 31.9919C32.6387 32.0449 32.6599 32.0979 32.7023 32.1297C32.7341 32.1615 32.7765 32.1721 32.8189 32.1721C32.8295 32.1721 32.8401 32.1721 32.8507 32.1721C35.0768 31.7163 36.1792 31.5149 38.4795 31.1227C38.5643 31.1121 38.6279 31.0379 38.6279 30.9531C38.7021 26.9992 38.7445 24.6565 38.7975 21.6248L38.8505 18.6567C39.4971 18.5931 39.8681 18.5613 40.5572 18.4977C40.7798 18.4764 40.9918 18.4658 41.1932 18.4658C42.0624 18.4658 42.6878 18.6673 43.1012 19.0807L43.1224 19.0913ZM38.9565 14.0561C39.0201 10.5898 39.0519 8.7771 39.1367 5.17297C40.0377 5.13057 40.536 5.10936 41.49 5.07756C41.5536 5.07756 41.6172 5.07756 41.6808 5.07756C42.4122 5.07756 42.9422 5.25777 43.3027 5.61818C43.7373 6.0528 43.9387 6.78423 43.9281 7.84426L43.8963 10.7488C43.8751 12.7946 42.9634 13.7381 40.8434 13.9077C40.0801 13.9713 39.6667 14.0031 38.9459 14.0561H38.9565Z" fill="#121212"/>
<path d="M52.6522 29.2678C52.6522 29.2678 52.6522 29.2678 52.6628 29.2678C54.7617 29.0876 55.7899 29.0134 57.8888 28.9074C57.9842 28.9074 58.0584 28.8226 58.0584 28.7272L58.0902 19.6109L58.1538 0.509003C58.1538 0.509003 58.1326 0.413599 58.1008 0.381798C58.069 0.349997 58.0266 0.328796 57.9736 0.328796H52.8006C52.7052 0.328796 52.6204 0.413599 52.6204 0.509003L52.525 18.6039L52.472 29.0876C52.472 29.0876 52.4932 29.183 52.525 29.2148C52.5568 29.2466 52.5992 29.2572 52.6416 29.2572L52.6522 29.2678Z" fill="#121212"/>
<path d="M69.0722 29.1299C69.2418 29.1299 69.422 29.1299 69.581 29.1299C72.1251 29.1299 74.0438 28.4938 75.2946 27.2324C76.45 26.0769 77.0331 24.3915 77.0119 22.229L76.9907 17.692L76.9695 13.1551C76.9695 13.0597 76.8953 12.9855 76.7999 12.9749C73.8741 12.8583 72.4431 12.8159 69.5174 12.7735C69.475 12.7735 69.422 12.7947 69.3902 12.8265C69.3584 12.8583 69.3372 12.9113 69.3372 12.9537V14.9677V16.9818C69.3372 17.0772 69.4114 17.162 69.5174 17.162C70.4078 17.1832 70.8742 17.1938 71.7117 17.215V19.6425L71.7329 22.2502C71.7329 23.1194 71.5421 23.7449 71.1393 24.1477C70.7576 24.5293 70.1746 24.7201 69.369 24.7201C69.316 24.7201 69.263 24.7201 69.21 24.7201C67.4503 24.6671 66.6765 23.8721 66.6659 22.1124V7.31427L66.6553 6.95385C66.6553 6.05282 66.8779 5.37439 67.3125 4.96098C67.7153 4.57937 68.3301 4.37796 69.1358 4.37796C70.8742 4.37796 71.6693 5.21539 71.6799 6.99625V8.51211V10.028C71.6799 10.1234 71.7541 10.2082 71.8601 10.2082C73.8317 10.24 74.7964 10.2718 76.7681 10.3248C76.8105 10.3248 76.8635 10.3036 76.8953 10.2718C76.9271 10.24 76.9483 10.187 76.9483 10.1446V8.75592L76.9377 7.36727C76.9165 2.61829 74.0968 0 69.0086 0C63.9204 0 61.1113 2.57589 61.1113 7.24006V14.5543L61.0901 21.858C61.0901 26.448 63.8462 28.9603 69.0722 29.1299Z" fill="#121212"/>
<path d="M85.6511 17.5543C87.8984 17.7133 89.1386 17.8299 91.6403 18.0843V18.4872C91.8099 23.0665 91.8947 25.5788 92.2021 31.3772C92.2021 31.462 92.2657 31.5256 92.3505 31.5468C94.8098 32.045 96.1137 32.3313 98.6684 32.9461C98.679 32.9461 98.7002 32.9461 98.7108 32.9461C98.7532 32.9461 98.7956 32.9355 98.8274 32.9037C98.8698 32.8613 98.891 32.8083 98.891 32.7553C98.4245 26.9993 98.0323 21.1479 97.6507 15.4766C97.3221 10.5899 96.9935 5.54409 96.6013 0.583105C96.6013 0.487702 96.5165 0.424099 96.4211 0.413499L91.1421 0.371097C91.1421 0.371097 91.0467 0.392298 91.0149 0.424099C90.9831 0.455901 90.9619 0.508902 90.9619 0.561904C91.2375 5.9681 91.3117 8.49099 91.4601 12.6569L91.4919 13.5792C89.0644 13.3354 87.8454 13.2294 85.6087 13.0492V12.0845C85.5557 7.91857 85.5345 5.40628 85.4391 0.508902C85.4391 0.413499 85.3543 0.339296 85.2589 0.328696H84.1988C82.7678 0.318096 81.7607 0.307495 80.0753 0.307495C80.0753 0.307495 79.9799 0.328696 79.9481 0.360497C79.9163 0.392298 79.8951 0.4453 79.8951 0.487702L79.9905 14.9466L80.0859 29.4161C80.0859 29.5116 80.1495 29.5858 80.2449 29.5964C82.3014 29.8296 83.3614 29.9568 85.6299 30.3172C85.6299 30.3172 85.6511 30.3172 85.6617 30.3172C85.7041 30.3172 85.7465 30.3066 85.7783 30.2748C85.8207 30.243 85.8419 30.19 85.8419 30.137C85.7359 24.9746 85.7041 22.4729 85.6617 17.9359V17.5437L85.6511 17.5543Z" fill="#121212"/>
<path d="M99.1348 5.99985C101.329 6.16946 102.442 6.25426 104.583 6.43447C105.124 11.2682 105.442 14.3636 105.749 17.3529C106.216 21.7944 106.65 25.9922 107.732 35.2357C107.732 35.3099 107.795 35.3629 107.859 35.3841C110.297 36.0837 111.505 36.4548 113.753 37.1968C113.774 37.1968 113.785 37.1968 113.806 37.1968C113.848 37.1968 113.891 37.1862 113.922 37.1544C113.965 37.112 113.997 37.059 113.986 36.9954C112.671 26.7978 112.173 22.7167 111.601 17.9889C111.24 14.9996 110.869 11.9043 110.244 6.91149C112.3 7.09169 113.392 7.1871 115.491 7.3673C115.491 7.3673 115.491 7.3673 115.502 7.3673C115.555 7.3673 115.597 7.3461 115.629 7.3143C115.671 7.2719 115.682 7.2189 115.682 7.16589C115.396 4.84441 115.237 3.58296 114.876 0.731462C114.866 0.646659 114.792 0.572456 114.696 0.572456H113.223C107.774 0.519454 104.583 0.487653 98.679 0.445251C98.679 0.445251 98.5836 0.466452 98.5518 0.498253C98.52 0.530055 98.4987 0.583056 98.5093 0.636058C98.7108 2.86214 98.8062 3.87978 98.9758 5.83025C98.9758 5.91505 99.05 5.98925 99.1454 5.98925L99.1348 5.99985Z" fill="#121212"/>
</svg>
