<svg width="127" height="50" viewBox="0 0 127 50" fill="none" xmlns="http://www.w3.org/2000/svg">
<path d="M43.1619 40.9342C43.1619 42.6135 44.5117 43.004 45.5974 43.3155C46.3039 43.5254 46.7666 43.706 46.7666 44.268C46.7666 44.9745 46.1459 45.0806 45.7757 45.0806C45.0579 45.0806 44.2137 44.7059 43.7081 44.3832L43.5591 44.2884L42.9226 45.8345L43.0129 45.9045C43.4305 46.225 44.5297 46.7013 45.8524 46.7013C47.6943 46.7013 48.8387 45.7239 48.8387 44.1507C48.8387 42.442 47.4415 42.0018 46.419 41.6813C45.6538 41.4533 45.1888 41.275 45.1888 40.7288C45.1888 40.1961 45.6561 40.0065 46.0917 40.0065C46.6424 40.0065 47.2429 40.2751 47.8252 40.7807L47.9426 40.8823L48.9809 39.607L48.8861 39.5122C48.1796 38.8079 47.1503 38.4016 46.0623 38.4016C44.6652 38.3994 43.1619 39.1916 43.1619 40.9342Z" fill="#121212"/>
<path d="M56.8381 49.6288V39.002L56.7433 38.9658C55.8292 38.6047 54.7976 38.3993 53.9105 38.3993C51.5112 38.3993 50.0214 40.0673 50.0214 42.7534C50.0214 46.0037 51.6872 46.6877 53.0844 46.6877C53.6939 46.6877 54.2536 46.5184 54.7525 46.1821V49.631H56.8381V49.6288ZM53.4456 45.0964C52.2086 45.0964 52.1071 43.952 52.1071 42.5728C52.1071 41.3246 52.6962 40.0651 54.0144 40.0651C54.2943 40.0651 54.5155 40.0899 54.7525 40.1486V43.9994C54.7547 44.4463 54.2875 45.0964 53.4456 45.0964Z" fill="#121212"/>
<path d="M65.456 38.6249H63.3704V43.7149C63.3704 44.3243 62.797 45.0083 62.0318 45.0083C61.1764 45.0083 61.0093 44.4801 61.0093 43.5659V38.6272H58.9237V43.8977C58.9237 45.7509 59.8063 46.6899 61.5511 46.6899C62.4201 46.6899 63.165 46.3626 63.6773 45.7599L63.7631 46.4799H65.5914L65.456 45.0692V38.6249Z" fill="#121212"/>
<path d="M74.0582 38.9704L73.9612 38.9342C72.8348 38.5122 71.7198 38.3993 71.2368 38.3993C68.6613 38.3993 67.1829 40.029 67.1829 42.873C67.1829 45.3582 68.2528 46.6719 70.2752 46.6719C71.0855 46.6719 71.8011 46.3671 72.2796 45.8254L72.3654 46.4777H74.205L74.056 44.8797V38.9704H74.0582ZM71.9884 43.9384C71.9884 44.4982 71.5257 45.0964 70.6657 45.0964C69.7154 45.0964 69.2527 44.3492 69.2527 42.8121C69.2527 41.53 69.5574 40.0041 71.011 40.0041C71.4173 40.0041 71.774 40.0719 71.9884 40.1509V43.9384Z" fill="#121212"/>
<path d="M80.8749 45.8095L80.9742 46.4754H82.798L82.6491 44.8547V35.7402H80.5792V38.5301C80.3039 38.4579 79.9833 38.3992 79.5567 38.3992C77.2228 38.3992 75.7737 40.1034 75.7737 42.8436C75.7737 45.3671 76.8481 46.7011 78.8818 46.7011C79.6763 46.7011 80.3896 46.3783 80.8749 45.8095ZM80.577 43.9835C80.577 44.5139 80.0398 45.0805 79.2407 45.0805C78.2995 45.0805 77.8435 44.295 77.8435 42.6766C77.8435 41.6766 78.0715 40.0018 79.6019 40.0018C80.0059 40.0018 80.3445 40.0966 80.5792 40.1914V43.9835H80.577Z" fill="#121212"/>
<path d="M88.7638 43.505C88.2514 43.5185 87.8474 43.9429 87.8609 44.453C87.8745 44.9654 88.2988 45.3694 88.8089 45.3559L126.752 44.4304L88.8089 43.505C88.7954 43.5027 88.7773 43.5027 88.7638 43.505Z" fill="#121212"/>
<path d="M36.2323 45.3558C36.7447 45.3423 37.1465 44.9179 37.1352 44.4055C37.1216 43.8954 36.6973 43.4914 36.1849 43.5027L0 44.4281L36.1849 45.3536C36.2007 45.3558 36.2188 45.3558 36.2323 45.3558Z" fill="#121212"/>
<path d="M19.9354 36.203C24.8244 34.571 28.3705 30.3569 28.4721 25.0954C28.5556 23.2625 28.5962 22.3619 28.6775 20.5697C26.5467 20.9151 25.4745 21.1024 23.337 21.5042C23.2128 23.4973 23.1519 24.4995 23.0255 26.5558C22.8991 28.603 22.1136 29.7294 20.4839 30.1605C18.8542 30.5916 18.2019 29.7994 18.3599 27.6663C18.8158 21.5223 19.2876 15.3805 19.7819 9.24092C20.0099 6.43976 21.2762 5.97929 22.2039 5.91609C23.1316 5.85289 24.3414 6.11924 24.1586 8.80754C24.0525 10.3763 24.0006 11.146 23.9013 12.6786C25.9734 12.4168 27.0094 12.2949 29.0747 12.0669C29.1402 10.7216 29.174 10.0445 29.2418 8.67437C29.5329 4.35412 27.3525 -0.00901475 22.5379 1.39884e-05C17.1636 0.00904272 14.798 5.58429 14.3985 10.1957C13.8162 16.403 13.2541 22.6125 12.7169 28.822C12.2 33.7381 14.3872 38.2119 19.9354 36.203Z" fill="#121212"/>
<path d="M34.58 31.8376C35.0021 29.4156 35.2075 28.2486 35.6093 25.9508C37.8597 25.5784 38.9747 25.4136 41.1642 25.127C41.4757 27.2397 41.6314 28.2983 41.9429 30.411C44.1617 30.0386 45.2497 29.8806 47.3602 29.6165C45.7643 19.8632 44.1504 10.1122 42.7149 0.336304C40.2997 0.345332 37.8845 0.354361 35.4693 0.365647C33.4649 11.2994 31.3026 22.1994 29.2034 33.1151C31.3703 32.5621 32.4492 32.3048 34.58 31.8376ZM38.6903 7.98816C39.2569 12.2068 39.855 16.4187 40.469 20.6306C38.8709 20.809 38.0651 20.9083 36.4399 21.125C37.2028 16.7505 37.9522 12.3693 38.6903 7.98816Z" fill="#121212"/>
<path d="M54.2018 17.5226C54.7345 17.5 55.0031 17.4887 55.5358 17.4684C57.565 17.3917 58.3234 18.2765 58.3302 20.6736C58.3347 22.4297 58.3369 23.3077 58.3392 25.0525C58.3437 27.321 58.5153 27.7815 58.7771 28.4857C58.8087 28.5692 58.8245 28.6121 58.8561 28.6979C61.041 28.6144 62.1358 28.5941 64.3117 28.585C64.244 28.4406 64.2101 28.3683 64.1424 28.2239C63.6797 27.2352 63.6368 26.2534 63.63 24.9735C63.6188 23.2649 63.612 22.4094 63.6007 20.6917C63.6639 18.4232 62.9755 15.8726 60.795 14.7778C62.8039 13.6357 63.5578 11.3198 63.4766 9.11683C63.4698 8.2433 63.4675 7.8054 63.4608 6.93187C63.542 2.50779 60.5467 0.207725 56.2919 0.307041C53.8745 0.307041 51.457 0.309298 49.0396 0.313812C48.9854 10.0174 48.9606 19.7233 48.9064 29.427C51.0056 29.19 52.062 29.0952 54.1815 28.9462C54.195 25.1406 54.1995 21.3327 54.2018 17.5226ZM54.2131 4.82818C54.9941 4.81915 55.3846 4.81689 56.1678 4.81012C57.6463 4.79884 58.2512 5.54596 58.2534 7.39911C58.2557 8.50062 58.2579 9.05137 58.2602 10.1551C58.267 12.5297 56.9939 12.875 55.748 12.9066C55.1317 12.9224 54.8225 12.9315 54.2063 12.9518C54.2063 10.2454 54.2086 7.5368 54.2131 4.82818Z" fill="#121212"/>
<path d="M79.2632 24.5447C76.6314 24.3912 73.9972 24.2738 71.3631 24.2016C71.336 21.6555 71.3089 19.1094 71.2796 16.5633C73.8234 16.613 75.0874 16.6491 77.5907 16.7394C77.5749 14.9178 77.5658 14.0059 77.55 12.1821C75.4441 12.1234 73.3359 12.0783 71.2299 12.0467C71.2028 9.63375 71.178 7.22082 71.1509 4.80789C73.8054 4.82595 76.4598 4.85529 79.1143 4.88915C79.1007 3.06083 79.0939 2.14667 79.0804 0.318355C74.6947 0.313841 70.309 0.311583 65.9233 0.309326C66 9.73532 66.088 19.1613 66.1648 28.5851C70.5505 28.6483 74.9182 28.8288 79.2926 29.1132C79.2835 27.2872 79.2768 26.373 79.2632 24.5447Z" fill="#121212"/>
<path d="M96.8535 32.1785C96.6481 29.7317 96.5601 28.6121 96.3998 26.4881C93.3391 25.9441 90.2806 25.4362 87.1905 25.0841C87.1183 22.4568 87.0528 19.8317 86.9941 17.2043C89.328 17.3984 91.6665 17.6557 93.9891 17.9605C93.8876 16.1299 93.8379 15.236 93.7386 13.4145C91.4656 13.1369 89.1813 12.8953 86.8993 12.7012C86.8451 10.2319 86.7865 7.7625 86.7232 5.29314C89.4815 5.47597 92.2375 5.68589 94.9936 5.91612C94.8423 3.85305 94.7611 2.77186 94.5692 0.415363C90.1745 0.381505 85.7775 0.352162 81.3828 0.32959C81.4843 9.98808 81.525 19.6466 81.631 29.3051C86.7865 29.9213 91.8064 30.9415 96.8535 32.1785Z" fill="#121212"/>
<path d="M105.812 34.7359C105.259 29.9416 104.722 25.1474 104.214 20.3486C104.792 20.4502 105.081 20.5021 105.654 20.6037C107.832 20.9964 108.71 22.0392 109.053 24.8968C109.304 26.9892 109.439 28.093 109.744 30.5691C110.139 33.7856 110.439 34.7472 110.871 36.0518C110.922 36.2076 110.947 36.2866 110.999 36.4446C113.342 37.2572 114.466 37.6702 116.536 38.4715C116.439 38.1758 116.389 38.0314 116.292 37.7425C115.626 35.7607 115.383 34.0994 115.139 32.1446C114.816 29.5376 114.674 28.3909 114.414 26.2331C114.186 23.4522 113.164 20.5292 110.83 18.8476C112.985 17.8476 113.132 15.0532 112.796 13.024C112.672 11.9948 112.609 11.4666 112.475 10.3606C111.999 5.56857 109.482 0.625332 104.135 0.492159C101.713 0.471844 99.2889 0.451529 96.8669 0.433472C97.8533 11.2567 98.6185 22.0979 99.632 32.9166C101.702 33.4809 103.767 34.0903 105.812 34.7359ZM104.756 6.79196C106.27 6.93642 107.008 8.03341 107.27 10.2296C107.426 11.5343 107.501 12.1573 107.645 13.3739C107.954 15.9945 106.665 16.0712 105.352 15.8613C104.699 15.7575 104.372 15.7056 103.715 15.604C103.399 12.6019 103.076 9.60215 102.749 6.6001C103.553 6.6791 103.954 6.71521 104.756 6.79196Z" fill="#121212"/>
</svg>
