<svg width="194" height="44" viewBox="0 0 194 44" fill="none" xmlns="http://www.w3.org/2000/svg">
<path d="M169.945 31.6152H169.866C167.222 31.6152 165.761 29.8277 165.761 26.5856V13.4479H169.172C169.511 13.4479 169.776 13.1828 169.776 12.8445C169.776 12.6472 169.697 12.5344 169.567 12.4273C169.449 12.3145 169.291 12.2469 169.099 12.2469H165.755V9.41068C165.767 3.83419 162.068 0.0563851 156.553 0H142.119C136.441 0 132.883 3.29853 132.793 8.63257V8.84683C132.889 10.1832 133.87 11.0966 135.245 11.0966C136.695 11.0966 137.71 10.0817 137.71 8.63257V7.14964C137.71 3.59737 139.48 1.21228 142.113 1.21228H156.537C159.147 1.2743 160.827 3.60865 160.827 7.14964V11.4518C160.827 11.5026 160.839 11.542 160.839 11.5928V12.2469H148.265C144.543 12.2469 141.95 14.5586 141.95 17.3779C141.95 19.2161 143.1 20.9978 145.361 22.6725L150.391 26.4164C152.026 27.5949 152.606 28.3674 152.606 29.3654C152.606 30.4762 151.778 31.6208 150.216 31.6208H142.53C142.175 31.6208 141.927 31.8689 141.927 32.2241C141.927 32.5793 142.175 32.8274 142.53 32.8274H150.74C154.462 32.8274 156.79 30.4931 156.79 27.6738C156.79 25.8131 155.64 24.0144 153.379 22.3398L148.349 18.6409C146.709 17.423 146.128 16.6505 146.128 15.6863C146.128 14.5756 147.222 13.4535 148.784 13.4535H160.833V24.3358C160.811 27.0649 161.538 29.1906 162.993 30.6566C164.425 32.0944 166.483 32.8274 169.116 32.8274H169.922C170.278 32.8274 170.526 32.5793 170.526 32.2241C170.526 31.8689 170.278 31.6208 169.922 31.6208H169.939L169.945 31.6152Z" fill="#121212"/>
<path d="M135.245 12.2243C133.802 12.2243 132.793 13.2336 132.793 14.6771V30.2845C132.793 31.7054 133.802 32.6978 135.245 32.6978C136.689 32.6978 137.698 31.7054 137.698 30.2845V14.6771C137.698 13.2336 136.689 12.2243 135.245 12.2243Z" fill="#121212"/>
<path d="M135.245 12.3483C133.802 12.3483 132.793 13.3576 132.793 14.8011V30.4085C132.793 31.8294 133.802 32.8218 135.245 32.8218C136.689 32.8218 137.698 31.8294 137.698 30.4085V14.8011C137.698 13.3576 136.689 12.3483 135.245 12.3483Z" fill="#121212"/>
<path d="M184.334 12.2468H181.397C176.474 12.2976 172.223 12.337 172.223 18.2349V26.8111C172.223 32.3876 175.905 32.7992 181.515 32.7992H184.453C189.375 32.7485 193.627 32.709 193.627 26.8111V18.2349C193.627 12.6584 189.945 12.2468 184.334 12.2468ZM188.721 20.2986V29.0665C188.721 31.5362 187.537 31.5531 185.18 31.5813C184.943 31.5813 184.701 31.5813 184.447 31.5926H180.917C179.451 31.6095 178.296 31.6151 177.692 31.0118C177.314 30.6397 177.134 29.9969 177.134 29.0609V24.7474V15.9795C177.134 13.5099 178.318 13.4929 180.675 13.4647C180.912 13.4647 181.16 13.4591 181.408 13.4535H184.938C186.404 13.4422 187.56 13.4309 188.163 14.0342C188.541 14.4064 188.721 15.0435 188.721 15.9852V20.2986Z" fill="#121212"/>
<path d="M119.694 12.2243H116.757C111.834 12.2751 107.583 12.3145 107.583 18.2124V30.3634C107.583 31.8069 108.592 32.8162 110.036 32.8162C111.479 32.8162 112.488 31.8069 112.488 30.3634V15.957C112.488 13.4873 113.672 13.4704 116.029 13.4422C116.266 13.4422 116.514 13.4366 116.762 13.4309H120.292C121.758 13.4197 122.914 13.4084 123.517 14.0117C123.895 14.3839 124.075 15.021 124.075 15.9626V30.369C124.075 31.8125 125.085 32.8218 126.528 32.8218C127.972 32.8218 128.981 31.8125 128.981 30.369V18.218C128.981 12.6416 125.299 12.2299 119.689 12.2299L119.694 12.2243Z" fill="#121212"/>
<path d="M94.6086 12.2468H83.5402C83.2075 12.2468 82.9369 12.5175 82.9369 12.8558C82.9369 13.1885 83.2019 13.4591 83.5402 13.4591H95.2119C96.6779 13.4478 97.8395 13.4366 98.4372 14.0399C98.8149 14.412 98.9954 15.0548 98.9954 15.9908V19.4472C97.7267 19.2555 96.255 19.216 94.6086 19.216H91.6709C86.9008 19.2611 82.7564 19.3062 82.5083 24.6798C82.5083 24.7249 82.4971 24.77 82.4971 24.8151V26.8168C82.4971 32.3932 86.179 32.8049 91.7893 32.8049H94.727C99.4972 32.7597 103.642 32.7146 103.89 27.3411C103.89 27.296 103.901 27.2509 103.901 27.2058V18.2406C103.901 12.6641 100.219 12.2525 94.6086 12.2525V12.2468ZM87.9608 31.0174C87.583 30.6453 87.4026 30.0082 87.4026 29.0665V26.0781V22.9487C87.4026 20.4791 88.5867 20.4621 90.9436 20.434C91.1804 20.434 91.4228 20.434 91.6766 20.4227H95.2063C96.6723 20.4114 97.8282 20.4001 98.4315 21.0034C98.8093 21.3756 98.9897 22.0127 98.9897 22.9487V29.0722C98.9897 31.5418 97.8056 31.5587 95.4487 31.5869C95.2119 31.5869 94.9695 31.5869 94.7157 31.5982H91.186C89.72 31.6095 88.5641 31.6208 87.9608 31.0174Z" fill="#121212"/>
<path d="M70.1939 12.2469C67.1152 12.2469 64.561 13.6734 63.1119 16.1036C61.629 13.6734 59.0747 12.2469 56.0356 12.2469C50.9609 12.2469 47.544 15.9119 47.544 21.3023V36.2557C47.544 39.7966 45.858 42.131 43.253 42.193H22.9826C20.3494 42.193 18.5789 39.8079 18.5789 36.2557V30.51C18.5789 30.51 18.5789 30.4649 18.5789 30.4367V21.0655C18.5789 15.9006 15.1394 12.2976 10.2114 12.2976C8.16457 12.2976 6.34333 12.9009 4.89987 14.0512V7.79243C4.89987 6.37153 3.89058 5.37915 2.44712 5.37915C1.00366 5.37915 0 6.32078 0 7.7868V30.4311C0 31.852 1.00929 32.8444 2.45275 32.8444C3.89621 32.8444 4.90551 31.852 4.90551 30.4311V19.4924C4.94498 15.9796 6.70419 13.617 9.29227 13.617C11.8804 13.617 13.679 15.9908 13.679 19.5318V27.7415C13.6734 27.8317 13.6565 27.9163 13.6565 28.0065V33.9946C13.6565 39.6218 17.4061 43.4053 22.9882 43.4053H43.27C48.7788 43.3489 52.4777 39.5711 52.4777 33.9946V28.0065C52.4777 27.9276 52.4607 27.8543 52.4551 27.781V19.4078C52.4325 17.3159 52.9738 15.6074 53.9831 14.5868C54.671 13.8877 55.5394 13.5381 56.5599 13.5381C59.0522 13.5381 60.6648 15.8442 60.6648 19.4134V30.4367C60.6648 31.8802 61.6515 32.85 63.1175 32.85C64.5835 32.85 65.5703 31.8576 65.5703 30.4367V19.4134C65.5477 17.3215 66.089 15.6131 67.0983 14.5925C67.7862 13.8933 68.6546 13.5437 69.6751 13.5437C72.1674 13.5437 73.78 15.8499 73.78 19.4191V30.4423C73.78 31.8858 74.7667 32.8556 76.2327 32.8556C77.6987 32.8556 78.6855 31.8633 78.6855 30.4423V21.308C78.646 15.9175 75.2347 12.2525 70.1939 12.2525V12.2469Z" fill="#121212"/>
<path d="M31.6321 32.8499H34.5698C39.4922 32.7992 43.7436 32.7597 43.7436 26.8618V14.7108C43.7436 13.2674 42.7343 12.2581 41.2909 12.2581C39.8474 12.2581 38.8381 13.2674 38.8381 14.7108V29.1172C38.8381 31.5869 37.654 31.6038 35.2971 31.632C35.0603 31.632 34.8179 31.632 34.5641 31.6433H31.0344C29.5684 31.6546 28.4125 31.6658 27.8092 31.0625C27.4314 30.6904 27.251 30.0476 27.251 29.1116V14.7052C27.251 13.2617 26.2417 12.2524 24.7982 12.2524C23.3548 12.2524 22.3455 13.2617 22.3455 14.7052V26.8562C22.3455 32.4327 26.0274 32.8443 31.6377 32.8443H31.6321V32.8499Z" fill="#121212"/>
</svg>
